<?xml version="1.0" encoding="UTF-8"?>
<svg version="1.1" xmlns="http://www.w3.org/2000/svg" width="220" height="251">
<path d="M0 0 C72.6 0 145.2 0 220 0 C220 82.83 220 165.66 220 251 C147.4 251 74.8 251 0 251 C0 168.17 0 85.34 0 0 Z " fill="#FBFDFC" transform="translate(0,0)"/>
<path d="M0 0 C17.78767339 15.34157144 28.00435233 36.65317722 30 60 C30.12365464 63.09580446 30.12728939 66.18550642 30.11352539 69.28344727 C30.11367142 70.16258286 30.11381744 71.04171844 30.1139679 71.94749451 C30.11327755 74.82049119 30.10552674 77.69342105 30.09765625 80.56640625 C30.09578895 82.571365 30.09436652 84.5763242 30.09336853 86.58128357 C30.08956796 91.83372275 30.07975891 97.08613385 30.06866455 102.33856201 C30.05658908 108.65379506 30.05203647 114.96903755 30.04621124 121.28427887 C30.03654566 130.85620538 30.01737192 140.42807041 30 150 C4.59 150 -20.82 150 -47 150 C-47 124.92 -47 99.84 -47 74 C-37.17812506 75.63697916 -29.72145902 80.00643803 -23.4921875 87.9140625 C-18.43480133 95.51528363 -17 101.84335882 -17 111 C-11.72 111 -6.44 111 -1 111 C-3.52478683 94.06907654 -8.57079073 79.87444484 -22.65625 68.9375 C-25.07105431 67.23293225 -27.52340934 65.61256421 -30 64 C-31.34124267 63.0106336 -32.67727402 62.01398903 -34 61 C-28.20010798 57.48364035 -20.74092997 58.36130464 -14.27734375 59.46484375 C-8.64553714 60.973204 -4.05643678 63.55994216 0.7734375 66.79296875 C3.16397241 68.31772082 3.16397241 68.31772082 7 68 C8.9613916 66.59725942 8.9613916 66.59725942 10.6875 64.6875 C11.59048828 63.76517578 11.59048828 63.76517578 12.51171875 62.82421875 C14.20909105 60.96386996 14.20909105 60.96386996 15 58 C14.44828125 57.74089844 13.8965625 57.48179688 13.328125 57.21484375 C10.67287866 55.82930413 8.2445618 54.21960177 5.75 52.5625 C-6.76226926 44.54864978 -21.91904366 42.85126889 -36.46484375 45.671875 C-38.70251787 46.3524875 -40.85391833 47.07315753 -43 48 C-40.9348549 40.65726185 -35.23519942 35.51000613 -28.9375 31.625 C-21.99398343 27.776786 -16.87712463 26.76129925 -9 27 C-9 21.72 -9 16.44 -9 11 C-21.88467434 12.55748811 -32.99560378 15.45557548 -43 24 C-43.86625 24.61875 -44.7325 25.2375 -45.625 25.875 C-48.95731527 28.85654524 -51.42838971 32.3590947 -54 36 C-57.28099409 34.59896549 -59.07414935 33.00653684 -61.3125 30.25 C-70.64489077 19.28940488 -82.78870886 12.86693177 -97.25 11.25 C-98.4875 11.1675 -99.725 11.085 -101 11 C-101 16.28 -101 21.56 -101 27 C-98.69 27 -96.38 27 -94 27 C-84.39342016 28.45004979 -75.58193553 34.08463225 -69.8125 41.875 C-68 45 -68 45 -68 47 C-74.5513853 46.11808275 -74.5513853 46.11808275 -76.9765625 45.47973633 C-90.21931661 42.34001482 -103.99544202 45.36681386 -115.5 52.0625 C-118.44309904 53.91174723 -121.24082256 55.88672091 -124 58 C-123.43040847 61.62613199 -122.07625466 63.25517741 -119.4375 65.75 C-118.79683594 66.36359375 -118.15617187 66.9771875 -117.49609375 67.609375 C-117.00238281 68.06828125 -116.50867188 68.5271875 -116 69 C-113.64347117 67.87838291 -111.46441568 66.66373825 -109.25 65.2734375 C-99.52965953 59.59545016 -89.21195522 57.94050955 -78 60 C-77.01 60.99 -77.01 60.99 -76 62 C-76.79664063 62.44730469 -77.59328125 62.89460938 -78.4140625 63.35546875 C-91.86526122 71.03017946 -100.92064581 79.94799435 -106 95 C-107.29341531 100.29101501 -108.12640406 105.62048814 -109 111 C-103.72 111 -98.44 111 -93 111 C-93 108.36 -93 105.72 -93 103 C-91.46515859 93.07469219 -85.5665074 85.50240103 -77.89453125 79.28515625 C-73.17139278 76.08121283 -68.72823944 74 -63 74 C-63 99.08 -63 124.16 -63 150 C-88.41 150 -113.82 150 -140 150 C-140.16043524 127.26276164 -140.16043524 127.26276164 -140.1953125 117.46484375 C-140.21909312 110.81611129 -140.24702296 104.16760209 -140.30175781 97.51904297 C-140.34567269 92.15030367 -140.36923204 86.78180427 -140.37950897 81.41289902 C-140.38681935 79.37908026 -140.40109084 77.34527251 -140.42292023 75.31155777 C-140.70528197 47.87908549 -134.55686409 25.20396621 -115 5 C-114.484375 4.39929688 -113.96875 3.79859375 -113.4375 3.1796875 C-84.41268273 -29.32206101 -31.55605965 -25.59500743 0 0 Z " fill="#FAFCFB" transform="translate(164,43)"/>
<path d="M0 0 C1.58639282 0.01123901 1.58639282 0.01123901 3.20483398 0.02270508 C31.05293213 0.40754331 55.61330814 12.43384225 75.0625 32.25 C86.67408674 45.34577452 95.26849261 61.0994782 99.0625 78.25 C99.32268166 79.42229408 99.32268166 79.42229408 99.58811951 80.61827087 C101.77788015 92.43830149 101.31278801 104.38958306 101.2578125 116.36328125 C101.25486647 118.51444393 101.25282948 120.66560805 101.25170898 122.81677246 C101.24128656 130.73203705 101.21336414 138.64727081 101.1875 146.5625 C101.14625 164.279375 101.105 181.99625 101.0625 200.25 C35.0625 200.25 -30.9375 200.25 -98.9375 200.25 C-98.999375 181.89375 -99.06125 163.5375 -99.125 144.625 C-99.15231201 138.85306152 -99.17962402 133.08112305 -99.20776367 127.13427734 C-99.22131348 120.0246582 -99.22131348 120.0246582 -99.22383118 116.68447876 C-99.22840398 114.37757628 -99.23888391 112.07068046 -99.25422668 109.76382446 C-99.4122693 84.72525308 -99.4122693 84.72525308 -95.9375 73.25 C-95.5876857 72.08098396 -95.5876857 72.08098396 -95.23080444 70.88835144 C-87.98872393 48.57972955 -73.95952973 28.78876042 -53.9375 16.25 C-52.89980469 15.59128906 -51.86210938 14.93257812 -50.79296875 14.25390625 C-44.48336428 10.43929966 -38.19821407 7.35744909 -31.25 4.875 C-30.58605225 4.63644287 -29.92210449 4.39788574 -29.23803711 4.15209961 C-19.61864371 0.90257434 -10.11381375 -0.0948246 0 0 Z M-65.9375 47.25 C-81.56413261 67.01460605 -84.58961477 89.20886211 -84.328125 113.5703125 C-84.32064226 115.65208384 -84.31495898 117.73386234 -84.31097412 119.81564331 C-84.29587762 125.23089887 -84.25673835 130.64570867 -84.2121582 136.06079102 C-84.16356321 142.59224743 -84.1455952 149.12385492 -84.12234497 155.65544128 C-84.08387396 165.52060192 -84.00710948 175.38478918 -83.9375 185.25 C-58.5275 185.25 -33.1175 185.25 -6.9375 185.25 C-6.9375 160.17 -6.9375 135.09 -6.9375 109.25 C-17.24433114 110.72240445 -23.6163366 114.98960392 -30.24609375 122.9453125 C-35.92748767 130.68670375 -36.9375 136.60537085 -36.9375 146.25 C-42.2175 146.25 -47.4975 146.25 -52.9375 146.25 C-51.00414894 132.71654255 -47.23018027 116.31092528 -35.9375 107.25 C-32.36946759 104.75522473 -28.69987178 102.43541835 -24.984375 100.16796875 C-21.96285404 98.42316776 -21.96285404 98.42316776 -19.9375 96.25 C-26.19555628 93.12097186 -37.63256174 93.98769187 -44.18554688 95.90917969 C-48.35507945 97.60441862 -52.12739968 99.85786315 -55.9375 102.25 C-57.26200558 102.93403742 -58.59147541 103.60934407 -59.9375 104.25 C-61.27977818 102.98861805 -62.61108677 101.71555441 -63.9375 100.4375 C-64.68 99.72980469 -65.4225 99.02210937 -66.1875 98.29296875 C-67.9375 96.25 -67.9375 96.25 -67.9375 93.25 C-58.1976235 84.15657548 -45.62919146 80.0724649 -32.625 80.0625 C-31.79548828 80.05025391 -30.96597656 80.03800781 -30.11132812 80.02539062 C-25.00814834 80.01330733 -20.84595014 80.70734424 -15.9375 82.25 C-14.6175 82.25 -13.2975 82.25 -11.9375 82.25 C-14.76662374 73.99838909 -20.58692429 69.52113796 -27.9375 65.25 C-33.92202753 62.71569042 -38.3159617 62.25 -44.9375 62.25 C-44.9375 56.97 -44.9375 51.69 -44.9375 46.25 C-26.77625538 48.84446352 -12.67483096 54.59809378 -1.21484375 69.48828125 C-0.58255859 70.36033203 -0.58255859 70.36033203 0.0625 71.25 C3.61966979 70.06427674 4.13516425 69.06144761 6.25 66.0625 C14.42626797 55.26914207 27.40339315 48.88133433 40.69140625 46.84765625 C42.81064354 46.60555246 44.936381 46.42146121 47.0625 46.25 C47.0625 51.53 47.0625 56.81 47.0625 62.25 C45.78375 62.1675 44.505 62.085 43.1875 62 C33.6448903 62.04487121 25.84428123 66.82991377 19.0625 73.25 C14.80237828 77.69332473 14.80237828 77.69332473 13.0625 83.25 C13.56394531 83.0334375 14.06539063 82.816875 14.58203125 82.59375 C20.63888513 80.36499287 26.30163526 79.94741113 32.6875 79.9375 C33.48647705 79.93234375 34.2854541 79.9271875 35.10864258 79.921875 C47.23899345 80.06195122 58.02149611 84.0151467 67.25 91.859375 C68.94621008 93.45290623 68.94621008 93.45290623 71.0625 93.25 C68.68495212 97.74092377 65.7018937 100.77235713 62.0625 104.25 C59.62525165 103.04049272 57.20313573 101.80649019 54.78515625 100.55859375 C53.56517605 99.93475523 52.34512215 99.31106084 51.125 98.6875 C50.51720703 98.37103516 49.90941406 98.05457031 49.28320312 97.72851562 C43.52040674 94.80049286 38.91418763 94.09966215 32.5 94.0625 C31.38496094 94.04832031 30.26992187 94.03414063 29.12109375 94.01953125 C26.17758623 94.24132811 24.5418808 94.7162999 22.0625 96.25 C24.93436326 98.44185886 27.87976236 100.48116266 30.875 102.5 C42.82048472 110.94753897 50.49766255 122.03754485 53.58984375 136.43359375 C54.13746844 139.69671279 54.59457183 142.9745028 55.0625 146.25 C49.7825 146.25 44.5025 146.25 39.0625 146.25 C39.0625 143.61 39.0625 140.97 39.0625 138.25 C36.44775309 127.60244889 31.0882839 119.30982631 21.875 113.3125 C17.48674418 110.82210042 14.19445819 109.25 9.0625 109.25 C9.0625 134.33 9.0625 159.41 9.0625 185.25 C34.4725 185.25 59.8825 185.25 86.0625 185.25 C86.12077105 169.59571024 86.12077105 169.59571024 86.16015625 153.94140625 C86.17206401 147.54700356 86.18607782 141.1526587 86.21337891 134.75830078 C86.23527454 129.59708145 86.24710353 124.43592425 86.25225449 119.27466202 C86.25592046 117.31571603 86.26307821 115.35677304 86.27396011 113.39785385 C86.41533758 86.86753638 82.12811151 62.02133915 63.07299805 42.20336914 C61.75003982 40.87165113 60.40684126 39.56012898 59.0625 38.25 C58.08023438 37.25419922 58.08023438 37.25419922 57.078125 36.23828125 C41.2274094 21.16655381 18.52263116 14.46537815 -2.93359375 14.96875 C-28.14090739 16.44610172 -49.64421277 28.19718067 -65.9375 47.25 Z " fill="#395E4E" transform="translate(107.9375,7.75)"/>
<path d="M0 0 C13.32106658 -0.37002963 13.32106658 -0.37002963 16.4296875 1.32421875 C18 3 18 3 18.375 6 C18 9 18 9 16 12 C16.515625 12.350625 17.03125 12.70125 17.5625 13.0625 C19 15 19 15 19 18.5 C18 22 18 22 15.86328125 23.70703125 C10.73327383 26.02358303 5.55160333 25.1682304 0 25 C0 16.75 0 8.5 0 0 Z " fill="#456556" transform="translate(115,222)"/>
<path d="M0 0 C2.31 0 4.62 0 7 0 C9.24480642 5.61201606 10.83348574 11.07136283 12 17 C12.66 17 13.32 17 14 17 C14.10957031 16.443125 14.21914062 15.88625 14.33203125 15.3125 C15.44275248 9.96658969 16.97225526 5.06936184 19 0 C21.64 0 24.28 0 27 0 C27 8.25 27 16.5 27 25 C25.35 25 23.7 25 22 25 C21.67 19.72 21.34 14.44 21 9 C19.3962364 13.89040176 19.3962364 13.89040176 17.79907227 18.78295898 C16.11111111 23.88888889 16.11111111 23.88888889 15 25 C13.35 25 11.7 25 10 25 C8.35 19.72 6.7 14.44 5 9 C4.67 14.28 4.34 19.56 4 25 C2.68 25 1.36 25 0 25 C0 16.75 0 8.5 0 0 Z " fill="#496759" transform="translate(166,222)"/>
<path d="M0 0 C7 0 7 0 8.85546875 1.72265625 C9.29503906 2.49480469 9.73460938 3.26695312 10.1875 4.0625 C10.66832031 4.8771875 11.14914063 5.691875 11.64453125 6.53125 C12.09183594 7.3459375 12.53914063 8.160625 13 9 C13.41636719 9.7115625 13.83273438 10.423125 14.26171875 11.15625 C15.19707788 12.75784739 16.10219845 14.37705105 17 16 C17.33 10.72 17.66 5.44 18 0 C19.65 0 21.3 0 23 0 C23 8.25 23 16.5 23 25 C20.36 25 17.72 25 15 25 C12.03 19.72 9.06 14.44 6 9 C5.67 14.28 5.34 19.56 5 25 C3.35 25 1.7 25 0 25 C0 16.75 0 8.5 0 0 Z " fill="#4A6A5C" transform="translate(77,222)"/>
<path d="M0 0 C12 0 12 0 17 3 C18.0625 5.8125 18.0625 5.8125 18 9 C16.0625 12.375 16.0625 12.375 14 15 C14.433125 15.63808594 14.86625 16.27617187 15.3125 16.93359375 C15.869375 17.75988281 16.42625 18.58617187 17 19.4375 C17.556875 20.26121094 18.11375 21.08492187 18.6875 21.93359375 C20 24 20 24 20 25 C17.3125 25.5 17.3125 25.5 14 25 C12.430648 23.05138794 11.31721635 21.07168959 10.17578125 18.84765625 C9.06331822 16.67077684 9.06331822 16.67077684 6 16 C6 18.97 6 21.94 6 25 C4.02 25 2.04 25 0 25 C0 16.75 0 8.5 0 0 Z " fill="#416153" transform="translate(34,222)"/>
<path d="M0 0 C2.31 0 4.62 0 7 0 C16 21.1352459 16 21.1352459 16 25 C14.02 25 12.04 25 10 25 C9.67 23.02 9.34 21.04 9 19 C5.7 19 2.4 19 -1 19 C-1.144375 19.804375 -1.28875 20.60875 -1.4375 21.4375 C-2 24 -2 24 -3 25 C-4.66617115 25.04063832 -6.33388095 25.042721 -8 25 C-6.43889635 16.25781959 -3.21518143 8.24016625 0 0 Z " fill="#466356" transform="translate(15,222)"/>
<path d="M0 0 C1.65 0 3.3 0 5 0 C5.33 6.6 5.66 13.2 6 20 C11.47825081 20.4472136 11.47825081 20.4472136 14 19 C14.33 12.73 14.66 6.46 15 0 C16.65 0 18.3 0 20 0 C20.14584064 3.22868746 20.23424106 6.45652365 20.3125 9.6875 C20.35439453 10.59951172 20.39628906 11.51152344 20.43945312 12.45117188 C20.52266257 17.02769132 20.50821315 19.28490362 17.79296875 23.10546875 C14.8615118 25.09393955 13.49506275 25.67961036 10 25.625 C9.175 25.63789063 8.35 25.65078125 7.5 25.6640625 C3.67167229 24.64716295 2.29438573 23.22838346 0 20 C-0.59551037 16.53790242 -0.47325764 13.18707025 -0.3125 9.6875 C-0.28994141 8.75615234 -0.26738281 7.82480469 -0.24414062 6.86523438 C-0.18542078 4.5751604 -0.10336858 2.28842125 0 0 Z " fill="#3D5E4F" transform="translate(139,222)"/>
<path d="M0 0 C4.95 0 9.9 0 15 0 C15 1.32 15 2.64 15 4 C12.03 4 9.06 4 6 4 C6 5.98 6 7.96 6 10 C8.64 10 11.28 10 14 10 C14 11.32 14 12.64 14 14 C11.36 14 8.72 14 6 14 C6 16.31 6 18.62 6 21 C8.97 21 11.94 21 15 21 C15 22.32 15 23.64 15 25 C10.05 25 5.1 25 0 25 C0 16.75 0 8.5 0 0 Z " fill="#395C4D" transform="translate(57,222)"/>
<path d="M0 0 C3.63 0 7.26 0 11 0 C11.33 0.99 11.66 1.98 12 3 C11.67 3.66 11.34 4.32 11 5 C11.66 5 12.32 5 13 5 C12.61012211 7.82661469 12.26241942 8.78678422 10 10.625 C9.34 11.07875 8.68 11.5325 8 12 C7.67 12.66 7.34 13.32 7 14 C8.65 14 10.3 14 12 14 C12.38218767 15.65614657 12.71395102 17.32457024 13 19 C12 20 12 20 8.9375 20.0625 C7.968125 20.041875 6.99875 20.02125 6 20 C6 18.02 6 16.04 6 14 C4.68 14.33 3.36 14.66 2 15 C1.67 18.3 1.34 21.6 1 25 C0.67 25 0.34 25 0 25 C0 16.75 0 8.5 0 0 Z " fill="#446456" transform="translate(115,222)"/>
<path d="M0 0 C0.33 0 0.66 0 1 0 C1 3.96 1 7.92 1 12 C2.32 12 3.64 12 5 12 C5 9.36 5 6.72 5 4 C7.375 3.875 7.375 3.875 10 4 C12 6 12 6 12 10 C10.68 10.33 9.36 10.66 8 11 C7.67 12.32 7.34 13.64 7 15 C7.66 15.33 8.32 15.66 9 16 C8.01 16 7.02 16 6 16 C6 18.97 6 21.94 6 25 C4.02 25 2.04 25 0 25 C0 16.75 0 8.5 0 0 Z " fill="#5E7B6E" transform="translate(34,222)"/>
<path d="M0 0 C1.65 0 3.3 0 5 0 C5 8.25 5 16.5 5 25 C3.35 25 1.7 25 0 25 C0 16.75 0 8.5 0 0 Z " fill="#3C5A4C" transform="translate(199,222)"/>
<path d="M0 0 C2.35953094 2.35953094 2.49141413 3.77895617 3 7 C4.65 6.34 6.3 5.68 8 5 C8.83719383 7.29032311 9.6698929 9.58210957 10.5 11.875 C10.73847656 12.52597656 10.97695313 13.17695313 11.22265625 13.84765625 C13 18.7734375 13 18.7734375 13 21 C11.02 21 9.04 21 7 21 C6.67 19.02 6.34 17.04 6 15 C5.34 15 4.68 15 4 15 C4 14.01 4 13.02 4 12 C1.03 11.505 1.03 11.505 -2 11 C-1.125 3.375 -1.125 3.375 0 0 Z " fill="#4E6C5E" transform="translate(18,226)"/>
<path d="M0 0 C2.31 0 4.62 0 7 0 C6.67 1.32 6.34 2.64 6 4 C5.67 4 5.34 4 5 4 C4.67 10.93 4.34 17.86 4 25 C2.68 25 1.36 25 0 25 C0 16.75 0 8.5 0 0 Z " fill="#395C4C" transform="translate(166,222)"/>
<path d="M0 0 C0.33 0 0.66 0 1 0 C1.33 3.96 1.66 7.92 2 12 C2.66 12 3.32 12 4 12 C4 10.02 4 8.04 4 6 C4.66 6.33 5.32 6.66 6 7 C5.67 12.94 5.34 18.88 5 25 C3.35 25 1.7 25 0 25 C0 16.75 0 8.5 0 0 Z " fill="#496659" transform="translate(77,222)"/>
<path d="M0 0 C4.95 0 9.9 0 15 0 C15 1.32 15 2.64 15 4 C12.03 4 9.06 4 6 4 C6 5.98 6 7.96 6 10 C5.67 10 5.34 10 5 10 C5 7.36 5 4.72 5 2 C4.34 2 3.68 2 3 2 C1.79729036 4.40541929 1.79683337 6.10366591 1.68359375 8.7890625 C1.64169922 9.73007813 1.59980469 10.67109375 1.55664062 11.640625 C1.51732422 12.62546875 1.47800781 13.6103125 1.4375 14.625 C1.39431641 15.61757812 1.35113281 16.61015625 1.30664062 17.6328125 C1.20038931 20.08839838 1.09835036 22.54408703 1 25 C0.67 25 0.34 25 0 25 C0 16.75 0 8.5 0 0 Z " fill="#637B70" transform="translate(57,222)"/>
<path d="M0 0 C1.32 0 2.64 0 4 0 C4 6.6 4 13.2 4 20 C2.35 20 0.7 20 -1 20 C-0.67 13.4 -0.34 6.8 0 0 Z " fill="#3B5B4D" transform="translate(95,222)"/>
<path d="M0 0 C4.75 0.75 4.75 0.75 7 3 C7.33333333 8.33333333 7.33333333 8.33333333 6 11 C5.01 11 4.02 11 3 11 C2.01 12.485 2.01 12.485 1 14 C-1.625 14.1875 -1.625 14.1875 -4 14 C-4 12.68 -4 11.36 -4 10 C-3.195625 9.731875 -2.39125 9.46375 -1.5625 9.1875 C-0.716875 8.795625 0.12875 8.40375 1 8 C1.33 7.01 1.66 6.02 2 5 C1.34 5 0.68 5 0 5 C0 3.35 0 1.7 0 0 Z " fill="#426253" transform="translate(126,222)"/>
<path d="M0 0 C0.99 0 1.98 0 3 0 C3 2.31 3 4.62 3 7 C4.98 7 6.96 7 9 7 C9.33 7.66 9.66 8.32 10 9 C9.67 9.66 9.34 10.32 9 11 C5.7 11 2.4 11 -1 11 C-1.09765625 3.28515625 -1.09765625 3.28515625 -1 1 C-0.67 0.67 -0.34 0.34 0 0 Z " fill="#3A5B4D" transform="translate(117,236)"/>
<path d="M0 0 C0.99 0.33 1.98 0.66 3 1 C2.44040477 4.82246588 0.78682643 6.58971741 -1.9375 9.25 C-2.64777344 9.95640625 -3.35804688 10.6628125 -4.08984375 11.390625 C-6 13 -6 13 -8 13 C-8.76443018 10.24805136 -9.1568112 8.51320029 -8.3125 5.75 C-6.65967616 3.54623488 -5.63317838 3.55855299 -3 3 C-1.26973898 1.52109931 -1.26973898 1.52109931 0 0 Z " fill="#3D6251" transform="translate(176,100)"/>
<path d="M0 0 C0.33 0 0.66 0 1 0 C1 6.27 1 12.54 1 19 C-0.32 19 -1.64 19 -3 19 C-3 13.72 -3 8.44 -3 3 C-2.34 3 -1.68 3 -1 3 C-0.67 2.01 -0.34 1.02 0 0 Z " fill="#3A5B4C" transform="translate(191,228)"/>
<path d="M0 0 C2.64 0 5.28 0 8 0 C8 8.25 8 16.5 8 25 C7.67 25 7.34 25 7 25 C6.67 19.72 6.34 14.44 6 9 C5.01 9 4.02 9 3 9 C2.8046875 6.94921875 2.609375 4.8984375 2.4140625 2.84765625 C2.27742187 2.23792969 2.14078125 1.62820312 2 1 C1.34 0.67 0.68 0.34 0 0 Z " fill="#537063" transform="translate(185,222)"/>
<path d="M0 0 C0.103125 0.556875 0.20625 1.11375 0.3125 1.6875 C0.90159676 4.14759342 0.90159676 4.14759342 2.75 6.375 C3.36875 7.674375 3.36875 7.674375 4 9 C2.6875 12.3125 2.6875 12.3125 1 15 C-0.65 15 -2.3 15 -4 15 C-2.9318153 9.88634986 -1.76892524 4.92772031 0 0 Z " fill="#49675B" transform="translate(11,232)"/>
<path d="M0 0 C2 2 2 2 2 6 C4.31 6 6.62 6 9 6 C8.67 7.32 8.34 8.64 8 10 C4.75 10.3125 4.75 10.3125 1 10 C-1.5 7.75 -1.5 7.75 -3 5 C-2.875 2.75 -2.875 2.75 -2 1 C-1.34 0.67 -0.68 0.34 0 0 Z " fill="#3A5D4E" transform="translate(14,231)"/>
<path d="M0 0 C3.55014375 2.68950284 5.18131364 5.99889001 7 10 C5.02 10 3.04 10 1 10 C-0.65 7.03 -2.3 4.06 -4 1 C-2.68 0.67 -1.36 0.34 0 0 Z " fill="#466456" transform="translate(47,237)"/>
<path d="M0 0 C0.33 0.66 0.66 1.32 1 2 C3.64 2 6.28 2 9 2 C9 2.99 9 3.98 9 5 C9.99 5.33 10.98 5.66 12 6 C9.54617866 7.22691067 7.80015897 7.20175931 5.0625 7.25 C3.74958984 7.28867188 3.74958984 7.28867188 2.41015625 7.328125 C-0.4193869 6.94290357 -1.25132925 6.19305243 -3 4 C-2.34 4 -1.68 4 -1 4 C-0.67 2.68 -0.34 1.36 0 0 Z " fill="#446357" transform="translate(144,240)"/>
<path d="M0 0 C0.33 0 0.66 0 1 0 C1 6.27 1 12.54 1 19 C0.67 19 0.34 19 0 19 C-0.33 17.35 -0.66 15.7 -1 14 C-1.99 14 -2.98 14 -4 14 C-3.52188823 12.22888156 -3.0424722 10.45811517 -2.5625 8.6875 C-2.29566406 7.70136719 -2.02882812 6.71523437 -1.75390625 5.69921875 C-1.21920575 3.78482474 -0.62855462 1.88566385 0 0 Z " fill="#D3E1DA" transform="translate(187,228)"/>
<path d="M0 0 C0.33 0.99 0.66 1.98 1 3 C3.01508358 3.73323796 3.01508358 3.73323796 5 4 C4.67 5.65 4.34 7.3 4 9 C2.35 9 0.7 9 -1 9 C-1.33 6.36 -1.66 3.72 -2 1 C-1.34 0.67 -0.68 0.34 0 0 Z " fill="#435F52" transform="translate(177,238)"/>
<path d="M0 0 C0 1.32 0 2.64 0 4 C-2.64 4 -5.28 4 -8 4 C-8 6.31 -8 8.62 -8 11 C-8.33 11 -8.66 11 -9 11 C-9.33 7.7 -9.66 4.4 -10 1 C-6.52674819 -0.1577506 -3.63932552 -0.06866652 0 0 Z " fill="#3B5A4D" transform="translate(71,232)"/>
<path d="M0 0 C2.475 0.99 2.475 0.99 5 2 C4.67 4.97 4.34 7.94 4 11 C2.68 11 1.36 11 0 11 C0 7.37 0 3.74 0 0 Z " fill="#355D4B" transform="translate(35,223)"/>
<path d="M0 0 C1.98 0 3.96 0 6 0 C6.38218767 1.65614657 6.71395102 3.32457024 7 5 C6 6 6 6 2.9375 6.0625 C1.4834375 6.0315625 1.4834375 6.0315625 0 6 C0 4.02 0 2.04 0 0 Z " fill="#F4FAF7" transform="translate(121,236)"/>
<path d="M0 0 C2.45234885 0.98093954 3.7809268 1.68703828 5.3125 3.875 C6.1132654 6.35009306 5.86325845 7.58287634 5 10 C4.01 10 3.02 10 2 10 C0.39644899 6.49223216 -0.22036864 3.85645121 0 0 Z " fill="#3F5E51" transform="translate(19,223)"/>
<path d="M0 0 C0.33 0.66 0.66 1.32 1 2 C0.34 2 -0.32 2 -1 2 C-1 2.66 -1 3.32 -1 4 C-2.65 4.66 -4.3 5.32 -6 6 C-5.67 7.32 -5.34 8.64 -5 10 C-5.99 10 -6.98 10 -8 10 C-9.67099977 10.31088368 -11.33871537 10.64080332 -13 11 C-12.87890625 9.234375 -12.87890625 9.234375 -12 7 C-9.27734375 5.078125 -9.27734375 5.078125 -5.9375 3.25 C-4.83277344 2.63640625 -3.72804688 2.0228125 -2.58984375 1.390625 C-1.73519531 0.93171875 -0.88054688 0.4728125 0 0 Z " fill="#456457" transform="translate(64,18)"/>
<path d="M0 0 C1.32 1.65 2.64 3.3 4 5 C2.25 8.875 2.25 8.875 0 10 C-1.32 7.36 -2.64 4.72 -4 2 C-2.68 1.34 -1.36 0.68 0 0 Z " fill="#456457" transform="translate(87,228)"/>
<path d="M0 0 C0.66 0 1.32 0 2 0 C2 3.3 2 6.6 2 10 C0.68 10 -0.64 10 -2 10 C-2.1953125 3.9453125 -2.1953125 3.9453125 -2 2 C-1.34 1.34 -0.68 0.68 0 0 Z " fill="#3B5B4E" transform="translate(37,237)"/>
<path d="M0 0 C2.31 0.33 4.62 0.66 7 1 C6.125 4.875 6.125 4.875 5 6 C3.33382885 6.04063832 1.66611905 6.042721 0 6 C0 4.02 0 2.04 0 0 Z " fill="#E5EEE9" transform="translate(121,226)"/>
<path d="M0 0 C2.475 0.495 2.475 0.495 5 1 C5.33 2.65 5.66 4.3 6 6 C4.02 6.33 2.04 6.66 0 7 C0 4.69 0 2.38 0 0 Z " fill="#EDF7F3" transform="translate(40,226)"/>
<path d="M0 0 C0.66 0 1.32 0 2 0 C2.33 0.99 2.66 1.98 3 3 C2.67 3.66 2.34 4.32 2 5 C1.34 5 0.68 5 0 5 C-0.33 5.66 -0.66 6.32 -1 7 C-1.99 7.66 -2.98 8.32 -4 9 C-4.99 8.67 -5.98 8.34 -7 8 C-5.88200014 6.66079162 -4.75538103 5.32877444 -3.625 4 C-2.68527344 2.88625 -2.68527344 2.88625 -1.7265625 1.75 C-1.15679687 1.1725 -0.58703125 0.595 0 0 Z " fill="#49685B" transform="translate(72,114)"/>
<path d="M0 0 C0.33 0 0.66 0 1 0 C1 1.98 1 3.96 1 6 C2.3921875 5.9690625 2.3921875 5.9690625 3.8125 5.9375 C7 6 7 6 10 7 C10.66 6.34 11.32 5.68 12 5 C12 6.32 12 7.64 12 9 C10.02 9.66 8.04 10.32 6 11 C6 10.01 6 9.02 6 8 C3.03 7.505 3.03 7.505 0 7 C0 4.69 0 2.38 0 0 Z " fill="#647E72" transform="translate(120,236)"/>
<path d="M0 0 C3.00617269 3.00617269 2.59585316 5.82381598 3 10 C1.35 10 -0.3 10 -2 10 C-1.34 6.7 -0.68 3.4 0 0 Z " fill="#E3EDE9" transform="translate(18,226)"/>
<path d="M0 0 C0.66 0.33 1.32 0.66 2 1 C-0.64 3.97 -3.28 6.94 -6 10 C-6.66 9.34 -7.32 8.68 -8 8 C-5.36 5.36 -2.72 2.72 0 0 Z M-9 9 C-9 9.99 -9 10.98 -9 12 C-11.5 14.1875 -11.5 14.1875 -14 16 C-12.70700306 13.11562221 -11.34058637 11.12780579 -9 9 Z " fill="#EAF5F1" transform="translate(56,41)"/>
<path d="M0 0 C0 0.99 0 1.98 0 3 C-0.33 3.33 -0.66 3.66 -1 4 C-0.505 4.474375 -0.01 4.94875 0.5 5.4375 C2 7 2 7 2 8 C-0.31 8.33 -2.62 8.66 -5 9 C-5.33 7.35 -5.66 5.7 -6 4 C-4.02 2.68 -2.04 1.36 0 0 Z " fill="#416153" transform="translate(82,107)"/>
<path d="M0 0 C2.74277578 3.19990508 4.6302836 6.00499382 6 10 C3.03 9.505 3.03 9.505 0 9 C0 6.03 0 3.06 0 0 Z " fill="#EEF7F2" transform="translate(82,229)"/>
<path d="M0 0 C0.99 0.66 1.98 1.32 3 2 C0.69 3.65 -1.62 5.3 -4 7 C-5.32 6.34 -6.64 5.68 -8 5 C-7.34 4.67 -6.68 4.34 -6 4 C-5.67 3.34 -5.34 2.68 -5 2 C-5 2.66 -5 3.32 -5 4 C-3.35 2.68 -1.7 1.36 0 0 Z " fill="#4C675C" transform="translate(54,106)"/>
<path d="M0 0 C0.99 0.33 1.98 0.66 3 1 C2.60196439 3.88575819 2.20990931 4.82189513 -0.0625 6.75 C-0.701875 7.1625 -1.34125 7.575 -2 8 C-2.6875 5.6875 -2.6875 5.6875 -3 3 C-1.5625 1.1875 -1.5625 1.1875 0 0 Z " fill="#4B685C" transform="translate(176,100)"/>
<path d="M0 0 C-0.66 1.65 -1.32 3.3 -2 5 C-3.65 5 -5.3 5 -7 5 C-7 3.68 -7 2.36 -7 1 C-4.50935112 0.31292445 -2.62113708 0 0 0 Z " fill="#3C5C4E" transform="translate(129,231)"/>
<path d="M0 0 C0.66 1.32 1.32 2.64 2 4 C-0.31 5.98 -2.62 7.96 -5 10 C-5.33 9.01 -5.66 8.02 -6 7 C-5.34 6.34 -4.68 5.68 -4 5 C-3.67 4.34 -3.34 3.68 -3 3 C-2.34 3 -1.68 3 -1 3 C-0.67 2.01 -0.34 1.02 0 0 Z " fill="#48685B" transform="translate(51,41)"/>
<path d="M0 0 C2.8125 -0.3125 2.8125 -0.3125 6 0 C7.875 2.5 7.875 2.5 9 5 C7.35 5 5.7 5 4 5 C3.67 4.34 3.34 3.68 3 3 C2.01 3 1.02 3 0 3 C0 2.01 0 1.02 0 0 Z " fill="#436154" transform="translate(78,222)"/>
<path d="M0 0 C1.3921875 0.0928125 1.3921875 0.0928125 2.8125 0.1875 C2.8125 1.5075 2.8125 2.8275 2.8125 4.1875 C-0.1575 3.8575 -3.1275 3.5275 -6.1875 3.1875 C-3.1875 0.1875 -3.1875 0.1875 0 0 Z " fill="#395C4E" transform="translate(69.1875,221.8125)"/>
<path d="M0 0 C1.98 0.495 1.98 0.495 4 1 C4.33 2.32 4.66 3.64 5 5 C3.02 5 1.04 5 -1 5 C-0.67 3.35 -0.34 1.7 0 0 Z " fill="#486157" transform="translate(26,242)"/>
<path d="M0 0 C5.75 3.625 5.75 3.625 8 7 C7.01 7.33 6.02 7.66 5 8 C5 7.34 5 6.68 5 6 C3.68 5.67 2.36 5.34 1 5 C0.67 3.35 0.34 1.7 0 0 Z " fill="#456557" transform="translate(91,62)"/>
<path d="M0 0 C-0.99 1.485 -0.99 1.485 -2 3 C-2.66 3 -3.32 3 -4 3 C-4 5.31 -4 7.62 -4 10 C-4.33 10 -4.66 10 -5 10 C-5.33 6.7 -5.66 3.4 -6 0 C-3 -1 -3 -1 0 0 Z " fill="#49665A" transform="translate(67,233)"/>
<path d="M0 0 C0.66 0 1.32 0 2 0 C2 0.99 2 1.98 2 3 C1.34 3 0.68 3 0 3 C0 3.66 0 4.32 0 5 C-0.66 5 -1.32 5 -2 5 C-2.66 6.65 -3.32 8.3 -4 10 C-4.66 9.67 -5.32 9.34 -6 9 C-5.05016642 7.49460339 -4.08988109 5.99579653 -3.125 4.5 C-2.59132813 3.6646875 -2.05765625 2.829375 -1.5078125 1.96875 C-0.76144531 0.99421875 -0.76144531 0.99421875 0 0 Z " fill="#4E675C" transform="translate(27,50)"/>
<path d="M0 0 C-0.33 1.65 -0.66 3.3 -1 5 C-2.65 4.67 -4.3 4.34 -6 4 C-2.25 0 -2.25 0 0 0 Z " fill="#436355" transform="translate(48,30)"/>
<path d="M0 0 C0.33 0.99 0.66 1.98 1 3 C1.99 3.33 2.98 3.66 4 4 C3.01 4.99 2.02 5.98 1 7 C-2 3.25 -2 3.25 -2 1 C-1.34 0.67 -0.68 0.34 0 0 Z " fill="#395B4B" transform="translate(177,238)"/>
<path d="M0 0 C1.32 0 2.64 0 4 0 C4.33 1.98 4.66 3.96 5 6 C3.0625 5.25 3.0625 5.25 1 4 C0.25 1.875 0.25 1.875 0 0 Z " fill="#E2EDE7" transform="translate(20,241)"/>
<path d="M0 0 C0.66 0 1.32 0 2 0 C2 0.66 2 1.32 2 2 C2.66 2 3.32 2 4 2 C3.34 3.32 2.68 4.64 2 6 C1.34 6 0.68 6 0 6 C-0.38218767 4.34385343 -0.71395102 2.67542976 -1 1 C-0.67 0.67 -0.34 0.34 0 0 Z " fill="#4A685A" transform="translate(168,107)"/>
<path d="M0 0 C0.66 0 1.32 0 2 0 C2 0.66 2 1.32 2 2 C2.66 2 3.32 2 4 2 C4 4.64 4 7.28 4 10 C1.04816899 7.04816899 0.91336012 4.04488053 0 0 Z " fill="#466255" transform="translate(189,81)"/>
<path d="M0 0 C0.99 0.33 1.98 0.66 3 1 C2.67 2.65 2.34 4.3 2 6 C0.68 4.68 -0.64 3.36 -2 2 C-1.34 2 -0.68 2 0 2 C0 1.34 0 0.68 0 0 Z M3 0 C5 1 5 1 5 1 Z " fill="#4A6A5B" transform="translate(87,74)"/>
<path d="M0 0 C1.98 0.66 3.96 1.32 6 2 C6 2.66 6 3.32 6 4 C5.01 4.33 4.02 4.66 3 5 C2.01 4.34 1.02 3.68 0 3 C0 2.01 0 1.02 0 0 Z " fill="#4D685C" transform="translate(150,17)"/>
<path d="M0 0 C2.35953094 2.35953094 2.49141413 3.77895617 3 7 C2.01 7.66 1.02 8.32 0 9 C0 6.03 0 3.06 0 0 Z " fill="#E4F0E9" transform="translate(171,232)"/>
<path d="M0 0 C-0.639375 0.45375 -1.27875 0.9075 -1.9375 1.375 C-4.09702406 2.83921726 -4.09702406 2.83921726 -5 5 C-6.32 4.01 -7.64 3.02 -9 2 C-5.86501708 0.14223235 -3.62528568 -0.20140476 0 0 Z " fill="#D0E0D9" transform="translate(139,102)"/>
<path d="M0 0 C1.32 0.99 2.64 1.98 4 3 C3.01 3.99 2.02 4.98 1 6 C0.34 5.34 -0.32 4.68 -1 4 C-0.625 1.875 -0.625 1.875 0 0 Z " fill="#506D60" transform="translate(40,100)"/>
</svg>
